<svg width="15" height="12" viewBox="0 0 15 12" fill="none" xmlns="http://www.w3.org/2000/svg">
<path d="M5.6 12C4.04 12 2.71667 11.4567 1.63 10.37C0.543333 9.28333 0 7.96 0 6.4V1.6C0 1.16 0.156667 0.783333 0.47 0.47C0.783333 0.156667 1.16 0 1.6 0H11.6C12.3733 0 13.0333 0.273333 13.58 0.82C14.1267 1.36667 14.4 2.02667 14.4 2.8C14.4 3.57333 14.1267 4.23333 13.58 4.78C13.0333 5.32667 12.3733 5.6 11.6 5.6H11.2V6.4C11.2 7.96 10.6567 9.28333 9.57 10.37C8.48333 11.4567 7.16 12 5.6 12ZM1.6 4H9.6V1.6H1.6V4ZM11.2 4H11.6C11.9333 4 12.2167 3.88333 12.45 3.65C12.6833 3.41667 12.8 3.13333 12.8 2.8C12.8 2.46667 12.6833 2.18333 12.45 1.95C12.2167 1.71667 11.9333 1.6 11.6 1.6H11.2V4Z" fill="#FFA74F"/>
</svg>
