<svg width="11" height="14" viewBox="0 0 11 14" fill="none" xmlns="http://www.w3.org/2000/svg">
<path d="M2.66797 13.6673V7.56732C2.1013 7.41176 1.6263 7.10065 1.24297 6.63398C0.859635 6.16732 0.667969 5.62287 0.667969 5.00065V0.333984H2.0013V5.00065H2.66797V0.333984H4.0013V5.00065H4.66797V0.333984H6.0013V5.00065C6.0013 5.62287 5.80964 6.16732 5.4263 6.63398C5.04297 7.10065 4.56797 7.41176 4.0013 7.56732V13.6673H2.66797ZM9.33464 13.6673V8.33398H7.33464V3.66732C7.33464 2.7451 7.65964 1.95898 8.30964 1.30898C8.95964 0.658984 9.74575 0.333984 10.668 0.333984V13.6673H9.33464Z" fill="#FFD576"/>
</svg>
