<svg width="36" height="36" viewBox="0 0 36 36" fill="none" xmlns="http://www.w3.org/2000/svg">
<mask id="mask0_1458_22578" style="mask-type:alpha" maskUnits="userSpaceOnUse" x="0" y="0" width="36" height="36">
<rect width="36" height="36" fill="#D9D9D9"/>
</mask>
<g mask="url(#mask0_1458_22578)">
<mask id="mask1_1458_22578" style="mask-type:alpha" maskUnits="userSpaceOnUse" x="4" y="4" width="28" height="28">
<rect x="4" y="4" width="28" height="28" fill="#D9D9D9"/>
</mask>
<g mask="url(#mask1_1458_22578)">
<path d="M9.83333 26.1667H11.4958L22.9 14.7625L21.2375 13.1L9.83333 24.5042V26.1667ZM7.5 28.5V23.5417L22.9 8.17083C23.1333 7.95694 23.391 7.79167 23.6729 7.675C23.9549 7.55833 24.2514 7.5 24.5625 7.5C24.8736 7.5 25.175 7.55833 25.4667 7.675C25.7583 7.79167 26.0111 7.96667 26.225 8.2L27.8292 9.83333C28.0625 10.0472 28.2326 10.3 28.3396 10.5917C28.4465 10.8833 28.5 11.175 28.5 11.4667C28.5 11.7778 28.4465 12.0743 28.3396 12.3562C28.2326 12.6382 28.0625 12.8958 27.8292 13.1292L12.4583 28.5H7.5ZM22.0542 13.9458L21.2375 13.1L22.9 14.7625L22.0542 13.9458Z" fill="white"/>
</g>
</g>
</svg>
