<svg width="10" height="12" viewBox="0 0 10 12" fill="none" xmlns="http://www.w3.org/2000/svg">
<path d="M1.41177 9.96667V9.98148L1.42551 9.97594L4.97619 8.54412L8.52687 9.97594L8.53435 9.95739L4.97993 8.52406L4.98138 8.52046L4.97245 8.52406L1.43177 9.95185V1.33333H1.41177V9.96667ZM0.01 11.9852V1.33333C0.01 0.969555 0.147978 0.658269 0.424485 0.398961C0.701012 0.139634 1.03325 0.01 1.42177 0.01H8.53061C8.91913 0.01 9.25137 0.139634 9.5279 0.398961C9.8044 0.658269 9.94238 0.969555 9.94238 1.33333V11.9852L4.97992 9.99072L4.98136 9.98715L4.97246 9.99072L0.01 11.9852Z" fill="#575960" stroke="#575960" stroke-width="0.02"/>
</svg>
