<svg width="14" height="10" viewBox="0 0 14 10" fill="none" xmlns="http://www.w3.org/2000/svg">
<path d="M11.895 4.87185L11.9036 4.87636L11.895 4.86018C11.3963 3.91542 10.6756 3.16473 9.73315 2.60825C8.79067 2.05175 7.7559 1.77352 6.62912 1.77352C5.50233 1.77352 4.46757 2.05175 3.52508 2.60825C2.58264 3.16473 1.86193 3.91542 1.36321 4.86018L1.35467 4.85567L1.36321 4.87185C1.86193 5.81662 2.58264 6.5673 3.52508 7.12378C4.46757 7.68028 5.50233 7.95852 6.62912 7.95852C7.7559 7.95852 8.79067 7.68028 9.73315 7.12378C10.6756 6.5673 11.3963 5.81662 11.895 4.87185ZM8.52396 6.6419C8.00388 7.12963 7.37252 7.37352 6.62912 7.37352C5.88572 7.37352 5.25435 7.12963 4.73428 6.6419C4.21423 6.1542 3.95448 5.56247 3.95448 4.86602C3.95448 4.16956 4.21423 3.57783 4.73428 3.09013C5.25435 2.60241 5.88572 2.35852 6.62912 2.35852C7.37252 2.35852 8.00388 2.60241 8.52396 3.09013C9.04401 3.57783 9.30376 4.16956 9.30376 4.86602C9.30376 5.56247 9.04401 6.1542 8.52396 6.6419ZM5.47853 5.94613C5.79445 6.24241 6.17823 6.39052 6.62912 6.39052C7.08 6.39052 7.46378 6.24241 7.7797 5.94613C8.09566 5.64983 8.2539 5.28956 8.2539 4.86602C8.2539 4.44247 8.09566 4.0822 7.7797 3.7859C7.46378 3.48963 7.08 3.34152 6.62912 3.34152C6.17823 3.34152 5.79445 3.48963 5.47853 3.7859C5.16258 4.0822 5.00433 4.44247 5.00433 4.86602C5.00433 5.28956 5.16258 5.64983 5.47853 5.94613ZM6.62912 9.05352C5.17838 9.05352 3.85706 8.67383 2.66483 7.91447C1.47415 7.1561 0.610679 6.14002 0.0741081 4.86602C0.610679 3.59201 1.47415 2.57593 2.66483 1.81756C3.85706 1.05821 5.17838 0.678516 6.62912 0.678516C8.07985 0.678516 9.40118 1.05821 10.5934 1.81756C11.7841 2.57593 12.6476 3.59201 13.1841 4.86602C12.6476 6.14002 11.7841 7.1561 10.5934 7.91447C9.40118 8.67383 8.07985 9.05352 6.62912 9.05352Z" fill="#84878E" stroke="#84878E" stroke-width="0.025"/>
</svg>
