<svg width="30" height="28" viewBox="0 0 30 28" fill="none" xmlns="http://www.w3.org/2000/svg">
<path d="M14.9905 4.13271L15 4.14391L15.0095 4.13271C15.8584 3.13405 16.8694 2.36016 18.0428 1.81093C19.2161 1.26171 20.4518 0.987109 21.75 0.987109C24.0969 0.987109 26.0561 1.77343 27.6287 3.34595C29.2012 4.91846 29.9875 6.87772 29.9875 9.22461C29.9875 10.3732 29.794 11.4968 29.407 12.5955C29.02 13.6939 28.3395 14.899 27.365 16.2109C26.3904 17.5228 25.0784 19.0035 23.4287 20.6533C21.7789 22.303 17.5537 26.1916 17.1666 26.5403C17.1069 26.5942 17.0411 26.6597 16.9685 26.732C16.5684 27.1308 15.9605 27.7365 15 27.7365C14.055 27.7365 13.5518 27.2407 13.1014 26.7969C13.011 26.7078 12.9227 26.6208 12.8334 26.5403C12.3014 26.061 8.2211 22.303 6.57134 20.6533C4.9216 19.0035 3.60955 17.5228 2.63503 16.2109C1.66051 14.899 0.979994 13.6939 0.59304 12.5955C0.206003 11.4968 0.0125 10.3732 0.0125 9.22461C0.0125 6.87772 0.798823 4.91846 2.37134 3.34595C3.94386 1.77343 5.90311 0.987109 8.25 0.987109C9.54817 0.987109 10.7839 1.26171 11.9572 1.81093C13.1306 2.36016 14.1416 3.13405 14.9905 4.13271ZM14.9917 24.4589L15 24.4664L15.0083 24.4589C17.4084 22.3088 19.3836 20.4649 20.9338 18.9272C22.484 17.3895 23.7094 16.0517 24.6098 14.9136C25.5102 13.7756 26.136 12.762 26.4866 11.8729C26.8372 10.9841 27.0125 10.1013 27.0125 9.22461C27.0125 7.72152 26.5113 6.46827 25.5088 5.46577C24.5063 4.46327 23.2531 3.96211 21.75 3.96211C20.5725 3.96211 19.4826 4.29411 18.4806 4.95794C17.9785 5.29058 17.504 5.87823 17.1343 6.40495C16.9494 6.66849 16.7905 6.91714 16.6673 7.1115C16.656 7.12927 16.6451 7.14658 16.6344 7.1634C16.5868 7.23864 16.5453 7.30416 16.5106 7.35737C16.4679 7.42277 16.436 7.46867 16.4157 7.49124C16.2467 7.67893 15.7439 8.23652 15 8.23652C14.2561 8.23652 13.7413 7.66555 13.5843 7.49124C13.5628 7.46736 13.53 7.42045 13.4867 7.35438C13.4499 7.2982 13.4059 7.22878 13.3553 7.14903C13.3467 7.13536 13.3378 7.12139 13.3288 7.10713C13.2052 6.91229 13.0465 6.66397 12.8622 6.40108C12.4937 5.87564 12.0215 5.29058 11.5194 4.95794C10.5174 4.29411 9.42751 3.96211 8.25 3.96211C6.74691 3.96211 5.49366 4.46327 4.49116 5.46577C3.48866 6.46827 2.9875 7.72152 2.9875 9.22461C2.9875 10.1013 3.16285 10.9841 3.51337 11.8729C3.86399 12.762 4.48979 13.7756 5.3902 14.9136C6.29062 16.0517 7.516 17.3895 9.0662 18.9272C10.6164 20.4649 12.5916 22.3088 14.9917 24.4589Z" fill="#CCD8FF" stroke="#CCD8FF" stroke-width="0.025"/>
</svg>
