<svg width="51" height="50" viewBox="0 0 51 50" fill="none" xmlns="http://www.w3.org/2000/svg">
<path d="M16.5 37.5L25.5 28.5L34.5 37.5L38 34L29 25L38 16L34.5 12.5L25.5 21.5L16.5 12.5L13 16L22 25L13 34L16.5 37.5ZM25.5 50C22.0417 50 18.7917 49.3438 15.75 48.0312C12.7083 46.7187 10.0625 44.9375 7.8125 42.6875C5.5625 40.4375 3.78125 37.7917 2.46875 34.75C1.15625 31.7083 0.5 28.4583 0.5 25C0.5 21.5417 1.15625 18.2917 2.46875 15.25C3.78125 12.2083 5.5625 9.5625 7.8125 7.3125C10.0625 5.0625 12.7083 3.28125 15.75 1.96875C18.7917 0.65625 22.0417 0 25.5 0C28.9583 0 32.2083 0.65625 35.25 1.96875C38.2917 3.28125 40.9375 5.0625 43.1875 7.3125C45.4375 9.5625 47.2187 12.2083 48.5312 15.25C49.8438 18.2917 50.5 21.5417 50.5 25C50.5 28.4583 49.8438 31.7083 48.5312 34.75C47.2187 37.7917 45.4375 40.4375 43.1875 42.6875C40.9375 44.9375 38.2917 46.7187 35.25 48.0312C32.2083 49.3438 28.9583 50 25.5 50Z" fill="#7793F0"/>
</svg>
