<svg width="16" height="16" viewBox="0 0 16 16" fill="none" xmlns="http://www.w3.org/2000/svg">
<mask id="mask0_1044_34992" style="mask-type:alpha" maskUnits="userSpaceOnUse" x="0" y="0" width="16" height="16">
<rect x="0.5" y="0.5" width="15" height="15" fill="#D9D9D9" stroke="#84878E"/>
</mask>
<g mask="url(#mask0_1044_34992)">
<path d="M7.87296 4.24342L7.88248 4.25462L7.89201 4.24342C8.2242 3.8526 8.61983 3.54978 9.07898 3.33486C9.53812 3.11994 10.0216 3.0125 10.5296 3.0125C11.4481 3.0125 12.2145 3.32015 12.8296 3.93533C13.4448 4.55051 13.7525 5.31689 13.7525 6.23536C13.7525 6.68492 13.6767 7.1247 13.5252 7.55477C13.3738 7.9846 13.1074 8.45654 12.7255 8.97062C12.3436 9.48469 11.8293 10.0651 11.1825 10.7119C10.5357 11.3587 8.87885 12.8836 8.72708 13.0203C8.70331 13.0418 8.67728 13.0677 8.64863 13.0962C8.49152 13.2527 8.25568 13.4875 7.88248 13.4875C7.51526 13.4875 7.32033 13.2955 7.14374 13.1216C7.10813 13.0866 7.07327 13.0522 7.03789 13.0203C6.82927 12.8324 5.22926 11.3588 4.58242 10.7119C3.93562 10.0651 3.42135 9.48469 3.03947 8.97062C2.65758 8.45654 2.39115 7.9846 2.23974 7.55477C2.08824 7.1247 2.0125 6.68492 2.0125 6.23536C2.0125 5.31689 2.32015 4.55051 2.93533 3.93533C3.55051 3.32015 4.31689 3.0125 5.23537 3.0125C5.74335 3.0125 6.22685 3.11994 6.68598 3.33486C7.14513 3.54978 7.54076 3.8526 7.87296 4.24342Z" fill="#FF5436" stroke="#84878E" stroke-width="0.025"/>
</g>
</svg>
