<svg width="12" height="11" viewBox="0 0 12 11" fill="none" xmlns="http://www.w3.org/2000/svg">
<path d="M5.87296 1.24342L5.88248 1.25462L5.89201 1.24342C6.2242 0.852601 6.61983 0.54978 7.07898 0.334858C7.53812 0.119945 8.02161 0.0125 8.5296 0.0125C9.44808 0.0125 10.2145 0.320153 10.8296 0.93533C11.4448 1.55051 11.7525 2.31689 11.7525 3.23536C11.7525 3.68492 11.6767 4.1247 11.5252 4.55477C11.3738 4.9846 11.1074 5.45654 10.7255 5.97062C10.3436 6.48469 9.82935 7.06511 9.18254 7.71192C8.53571 8.35875 6.87885 9.8836 6.72708 10.0203C6.70331 10.0418 6.67728 10.0677 6.64863 10.0962C6.49152 10.2527 6.25568 10.4875 5.88248 10.4875C5.51526 10.4875 5.32033 10.2955 5.14374 10.1216C5.10813 10.0866 5.07327 10.0522 5.03789 10.0203C4.82927 9.83238 3.22926 8.35875 2.58242 7.71192C1.93562 7.06511 1.42135 6.48469 1.03947 5.97062C0.657579 5.45654 0.391154 4.9846 0.239736 4.55477C0.0882352 4.1247 0.0125 3.68492 0.0125 3.23536C0.0125 2.31689 0.320153 1.55051 0.93533 0.93533C1.55051 0.320153 2.31689 0.0125 3.23537 0.0125C3.74335 0.0125 4.22685 0.119945 4.68598 0.334858C5.14513 0.54978 5.54076 0.852601 5.87296 1.24342Z" fill="#FF5436" stroke="#84878E" stroke-width="0.025"/>
</svg>
