<svg width="24" height="26" viewBox="0 0 24 26" fill="none" xmlns="http://www.w3.org/2000/svg">
<path d="M0 9.65714V23.0286C0 23.8457 0.290952 24.5452 0.872857 25.1271C1.45476 25.709 2.15429 26 2.97143 26H8.91429C9.33524 26 9.6881 25.8576 9.97286 25.5729C10.2576 25.2881 10.4 24.9352 10.4 24.5143V17.0857H13.3714V24.5143C13.3714 24.9352 13.5138 25.2881 13.7986 25.5729C14.0833 25.8576 14.4362 26 14.8571 26H20.8C21.6171 26 22.3167 25.709 22.8986 25.1271C23.4805 24.5452 23.7714 23.8457 23.7714 23.0286V9.65714C23.7714 9.18667 23.6662 8.74095 23.4557 8.32C23.2452 7.89905 22.9543 7.55238 22.5829 7.28L13.6686 0.594286C13.1486 0.198095 12.5543 0 11.8857 0C11.2171 0 10.6229 0.198095 10.1029 0.594286L1.18857 7.28C0.817143 7.55238 0.526191 7.89905 0.315714 8.32C0.105238 8.74095 0 9.18667 0 9.65714Z" fill="#C7C9CD"/>
</svg>
