<svg width="11" height="12" viewBox="0 0 11 12" fill="none" xmlns="http://www.w3.org/2000/svg">
<path d="M5.46447 5.9991C5.80658 5.9991 6.09945 5.88487 6.34308 5.6564C6.58671 5.42792 6.70852 5.15327 6.70852 4.83244C6.70852 4.51161 6.58671 4.23695 6.34308 4.00848C6.09945 3.78001 5.80658 3.66577 5.46447 3.66577C5.12236 3.66577 4.82949 3.78001 4.58586 4.00848C4.34224 4.23695 4.22042 4.51161 4.22042 4.83244C4.22042 5.15327 4.34224 5.42792 4.58586 5.6564C4.82949 5.88487 5.12236 5.9991 5.46447 5.9991ZM5.46447 10.2866C6.72925 9.19772 7.66747 8.20848 8.27913 7.3189C8.89079 6.42931 9.19662 5.63938 9.19662 4.94911C9.19662 3.88938 8.83636 3.02167 8.11585 2.34598C7.39534 1.67029 6.51155 1.33244 5.46447 1.33244C4.4174 1.33244 3.53361 1.67029 2.8131 2.34598C2.09258 3.02167 1.73233 3.88938 1.73233 4.94911C1.73233 5.63938 2.03816 6.42931 2.64981 7.3189C3.26147 8.20848 4.19969 9.19772 5.46447 10.2866ZM5.46447 11.44C4.71633 11.44 2.54874 9.26334 1.72455 8.12098C0.900372 6.97862 0.488281 5.92133 0.488281 4.94911C0.488281 3.49077 0.988492 2.32897 1.98891 1.46369C2.98934 0.59841 4.14785 0.165771 5.46447 0.165771C6.78109 0.165771 7.93961 0.59841 8.94003 1.46369C9.94045 2.32897 10.4407 3.49077 10.4407 4.94911C10.4407 5.92133 10.0286 6.97862 9.20439 8.12098C8.38021 9.26334 6.21261 11.44 5.46447 11.44Z" fill="#84878E"/>
</svg>
