<svg width="22" height="20" viewBox="0 0 22 20" fill="none" xmlns="http://www.w3.org/2000/svg">
<path d="M14.7568 10.3157L13.3398 8.89111C13.4864 8.12153 13.2665 7.40107 12.6801 6.72974C12.0938 6.0584 11.3364 5.79642 10.408 5.94378L8.99091 4.51924C9.2678 4.38825 9.54877 4.29 9.83381 4.22451C10.1188 4.15901 10.4242 4.12626 10.75 4.12626C11.9716 4.12626 13.0099 4.55608 13.8651 5.41572C14.7202 6.27536 15.1477 7.3192 15.1477 8.54726C15.1477 8.87474 15.1152 9.18175 15.05 9.4683C14.9848 9.75484 14.8871 10.0373 14.7568 10.3157ZM17.8841 13.4104L16.467 12.0349C17.086 11.5601 17.6357 11.0402 18.1162 10.4753C18.5967 9.9104 19.008 9.26772 19.35 8.54726C18.5356 6.89348 17.367 5.57946 15.844 4.6052C14.3211 3.63095 12.6231 3.14382 10.75 3.14382C10.2777 3.14382 9.81345 3.17657 9.35739 3.24206C8.90133 3.30756 8.45341 3.4058 8.01364 3.5368L6.49886 2.01401C7.16667 1.73565 7.85076 1.52688 8.55114 1.3877C9.25152 1.24852 9.98447 1.17893 10.75 1.17893C13.2095 1.17893 15.4002 1.86255 17.3222 3.22978C19.2441 4.59702 20.6367 6.36951 21.5 8.54726C21.1254 9.51333 20.6327 10.4098 20.0219 11.2367C19.4111 12.0636 18.6985 12.7881 17.8841 13.4104ZM18.3727 19.4524L14.2682 15.3752C13.6981 15.5554 13.124 15.6904 12.5457 15.7805C11.9675 15.8706 11.3689 15.9156 10.75 15.9156C8.29053 15.9156 6.09981 15.232 4.17784 13.8647C2.25587 12.4975 0.863258 10.725 0 8.54726C0.342045 7.67943 0.773674 6.87301 1.29489 6.12799C1.8161 5.38297 2.41061 4.71573 3.07841 4.12626L0.390909 1.37542L1.75909 0L19.7409 18.077L18.3727 19.4524ZM4.44659 5.50168C3.97424 5.92741 3.54261 6.39407 3.1517 6.90167C2.7608 7.40926 2.42689 7.95779 2.15 8.54726C2.96439 10.201 4.13305 11.5151 5.65597 12.4893C7.17888 13.4636 8.87689 13.9507 10.75 13.9507C11.0758 13.9507 11.3934 13.9302 11.7028 13.8893C12.0123 13.8484 12.3299 13.8033 12.6557 13.7542L11.7761 12.8209C11.597 12.87 11.4259 12.9069 11.2631 12.9314C11.1002 12.956 10.9292 12.9683 10.75 12.9683C9.52841 12.9683 8.49006 12.5384 7.63494 11.6788C6.77983 10.8192 6.35227 9.77531 6.35227 8.54726C6.35227 8.36714 6.36449 8.19522 6.38892 8.03148C6.41335 7.86773 6.45 7.69581 6.49886 7.51569L4.44659 5.50168Z" fill="#353738"/>
</svg>
