<svg width="14" height="14" viewBox="0 0 14 14" fill="none" xmlns="http://www.w3.org/2000/svg">
<path d="M12.7682 5.2494L11.8349 4.31606L12.3349 3.7994L10.2016 1.66606L9.6849 2.16606L8.73489 1.21606L9.23489 0.699396C9.49045 0.443841 9.80712 0.31884 10.1849 0.324396C10.5627 0.329952 10.8793 0.460507 11.1349 0.716063L13.2849 2.86606C13.5405 3.12162 13.6682 3.43551 13.6682 3.80773C13.6682 4.17995 13.5405 4.49384 13.2849 4.7494L12.7682 5.2494ZM4.76823 13.2661C4.51267 13.5216 4.19878 13.6494 3.82656 13.6494C3.45434 13.6494 3.14045 13.5216 2.8849 13.2661L0.734896 11.1161C0.47934 10.8605 0.351562 10.5466 0.351562 10.1744C0.351562 9.80217 0.47934 9.48828 0.734896 9.23273L1.2349 8.73273L2.1849 9.68273L1.66823 10.1827L3.81823 12.3327L4.31823 11.8161L5.26823 12.7661L4.76823 13.2661ZM11.3849 7.66606L12.3349 6.71606L7.2849 1.66606L6.3349 2.61606L11.3849 7.66606ZM6.71823 12.3327L7.66823 11.3661L2.6349 6.33273L1.66823 7.28273L6.71823 12.3327ZM7.66823 13.2661C7.41267 13.5216 7.09601 13.6494 6.71823 13.6494C6.34045 13.6494 6.02378 13.5216 5.76823 13.2661L3.25156 10.7494L0.734896 8.23273C0.47934 7.97717 0.351562 7.66051 0.351562 7.28273C0.351562 6.90495 0.47934 6.58829 0.734896 6.33273L1.6849 5.38273C1.94045 5.12717 2.25434 4.9994 2.62656 4.9994C2.99878 4.9994 3.31267 5.12717 3.56823 5.38273L4.61823 6.43273L6.45156 4.5994L5.40156 3.56606C5.14601 3.31051 5.01823 2.99384 5.01823 2.61606C5.01823 2.23828 5.14601 1.92162 5.40156 1.66606L6.35156 0.716063C6.60712 0.460507 6.92101 0.332729 7.29323 0.332729C7.66545 0.332729 7.97934 0.460507 8.2349 0.716063L13.2849 5.76606C13.5405 6.02162 13.6682 6.33551 13.6682 6.70773C13.6682 7.07995 13.5405 7.39384 13.2849 7.6494L12.3349 8.5994C12.0793 8.85495 11.7627 8.98273 11.3849 8.98273C11.0071 8.98273 10.6905 8.85495 10.4349 8.5994L9.40156 7.5494L7.56823 9.38273L8.61823 10.4327C8.87378 10.6883 9.00156 11.0022 9.00156 11.3744C9.00156 11.7466 8.87378 12.0605 8.61823 12.3161L7.66823 13.2661Z" fill="#EF9FFF"/>
</svg>
