<svg width="24" height="24" viewBox="0 0 24 24" fill="none" xmlns="http://www.w3.org/2000/svg">
<mask id="mask0_2680_26272" style="mask-type:alpha" maskUnits="userSpaceOnUse" x="0" y="0" width="24" height="24">
<rect y="0.746094" width="24" height="22.5072" fill="#D9D9D9"/>
</mask>
<g mask="url(#mask0_2680_26272)">
<path d="M12 11.9991C12.55 11.9991 13.0208 11.8154 13.4125 11.4481C13.8042 11.0808 14 10.6393 14 10.1235C14 9.6077 13.8042 9.16615 13.4125 8.79885C13.0208 8.43154 12.55 8.24789 12 8.24789C11.45 8.24789 10.9792 8.43154 10.5875 8.79885C10.1958 9.16615 10 9.6077 10 10.1235C10 10.6393 10.1958 11.0808 10.5875 11.4481C10.9792 11.8154 11.45 11.9991 12 11.9991ZM12 18.8919C14.0333 17.1414 15.5417 15.551 16.525 14.1209C17.5083 12.6907 18 11.4208 18 10.311C18 8.60738 17.4208 7.2124 16.2625 6.12612C15.1042 5.03983 13.6833 4.49669 12 4.49669C10.3167 4.49669 8.89583 5.03983 7.7375 6.12612C6.57917 7.2124 6 8.60738 6 10.311C6 11.4208 6.49167 12.6907 7.475 14.1209C8.45833 15.551 9.96667 17.1414 12 18.8919ZM12 20.7461C10.7972 20.7461 7.3125 17.2469 5.9875 15.4103C4.6625 13.5738 4 11.874 4 10.311C4 7.96655 4.80417 6.09877 6.4125 4.7077C8.02083 3.31663 9.88333 2.62109 12 2.62109C14.1167 2.62109 15.9792 3.31663 17.5875 4.7077C19.1958 6.09877 20 7.96655 20 10.311C20 11.874 19.3375 13.5738 18.0125 15.4103C16.6875 17.2469 13.2028 20.7461 12 20.7461Z" fill="#353738"/>
</g>
</svg>
