<svg width="30" height="28" viewBox="0 0 30 28" fill="none" xmlns="http://www.w3.org/2000/svg">
<path d="M14.9905 4.1327L15 4.14391L15.0095 4.1327C15.8584 3.13405 16.8694 2.36016 18.0428 1.81093C19.2161 1.26171 20.4518 0.987109 21.75 0.987109C24.0969 0.987109 26.0561 1.77343 27.6287 3.34595C29.2012 4.91846 29.9875 6.87772 29.9875 9.22461C29.9875 10.3732 29.794 11.4968 29.407 12.5955C29.02 13.6939 28.3395 14.899 27.365 16.2109C26.3904 17.5228 25.0784 19.0035 23.4287 20.6533C21.7789 22.303 17.5537 26.1916 17.1666 26.5403C17.1069 26.5942 17.0411 26.6597 16.9685 26.732C16.5684 27.1308 15.9605 27.7365 15 27.7365C14.055 27.7365 13.5518 27.2407 13.1014 26.7969C13.011 26.7078 12.9227 26.6208 12.8334 26.5403C12.3014 26.061 8.2211 22.303 6.57134 20.6533C4.9216 19.0035 3.60955 17.5228 2.63503 16.2109C1.66051 14.899 0.979994 13.6939 0.59304 12.5955C0.206003 11.4968 0.0125 10.3732 0.0125 9.22461C0.0125 6.87772 0.798823 4.91846 2.37134 3.34595C3.94386 1.77343 5.90311 0.987109 8.25 0.987109C9.54817 0.987109 10.7839 1.26171 11.9572 1.81093C13.1306 2.36016 14.1416 3.13405 14.9905 4.1327Z" fill="#5175EC" stroke="#CCD8FF" stroke-width="0.025"/>
</svg>
