<svg width="31" height="25" viewBox="0 0 31 25" fill="none" xmlns="http://www.w3.org/2000/svg">
<path d="M15.2778 9.72222L10.4167 4.86111L15.2778 0L20.1389 4.86111L15.2778 9.72222ZM0 25V19.4444C0 18.6574 0.271991 17.9977 0.815972 17.4653C1.35995 16.9329 2.01389 16.6667 2.77778 16.6667H7.32639C7.78935 16.6667 8.22917 16.7824 8.64583 17.0139C9.0625 17.2454 9.39815 17.5579 9.65278 17.9514C10.3241 18.8542 11.1516 19.5602 12.1354 20.0694C13.1192 20.5787 14.1667 20.8333 15.2778 20.8333C16.412 20.8333 17.4711 20.5787 18.4549 20.0694C19.4387 19.5602 20.2546 18.8542 20.9028 17.9514C21.2037 17.5579 21.5567 17.2454 21.9618 17.0139C22.3669 16.7824 22.7894 16.6667 23.2292 16.6667H27.7778C28.5648 16.6667 29.2245 16.9329 29.7569 17.4653C30.2893 17.9977 30.5556 18.6574 30.5556 19.4444V25H20.8333V21.8403C20.0231 22.419 19.1493 22.8588 18.2118 23.1597C17.2743 23.4606 16.2963 23.6111 15.2778 23.6111C14.2824 23.6111 13.3102 23.4549 12.3611 23.1424C11.412 22.8299 10.5324 22.3843 9.72222 21.8056V25H0ZM4.16667 15.2778C3.00926 15.2778 2.02546 14.8727 1.21528 14.0625C0.405093 13.2523 0 12.2685 0 11.1111C0 9.93056 0.405093 8.94097 1.21528 8.14236C2.02546 7.34375 3.00926 6.94444 4.16667 6.94444C5.34722 6.94444 6.33681 7.34375 7.13542 8.14236C7.93403 8.94097 8.33333 9.93056 8.33333 11.1111C8.33333 12.2685 7.93403 13.2523 7.13542 14.0625C6.33681 14.8727 5.34722 15.2778 4.16667 15.2778ZM26.3889 15.2778C25.2315 15.2778 24.2477 14.8727 23.4375 14.0625C22.6273 13.2523 22.2222 12.2685 22.2222 11.1111C22.2222 9.93056 22.6273 8.94097 23.4375 8.14236C24.2477 7.34375 25.2315 6.94444 26.3889 6.94444C27.5694 6.94444 28.559 7.34375 29.3576 8.14236C30.1562 8.94097 30.5556 9.93056 30.5556 11.1111C30.5556 12.2685 30.1562 13.2523 29.3576 14.0625C28.559 14.8727 27.5694 15.2778 26.3889 15.2778Z" fill="#C7C9CD"/>
</svg>
