<svg width="36" height="36" viewBox="0 0 36 36" fill="none" xmlns="http://www.w3.org/2000/svg">
<mask id="mask0_2693_1126" style="mask-type:alpha" maskUnits="userSpaceOnUse" x="0" y="0" width="36" height="36">
<rect width="36" height="36" fill="#D9D9D9"/>
</mask>
<g mask="url(#mask0_2693_1126)">
<path d="M16.4994 34.4247C15.671 33.5963 16 31.4247 16 31.4247C12.875 31.0747 10.6932 29.781 8.4557 27.5435C6.2182 25.306 4.92445 23.1248 4.57445 19.9998C4.57445 19.9998 2.40287 20.3281 1.57445 19.4997C0.746018 18.6713 0.746018 17.3281 1.57445 16.4997C2.40287 15.6713 4.57445 15.9998 4.57445 15.9998C4.92445 12.8748 6.2182 10.6935 8.4557 8.45596C10.6932 6.21846 12.875 4.9247 16 4.5747C16 4.5747 15.671 2.40313 16.4994 1.5747C17.3279 0.746278 18.671 0.746278 19.4994 1.5747C20.3279 2.40313 20 4.5747 20 4.5747C23.125 4.9247 25.3057 6.21846 27.5432 8.45596C29.7807 10.6935 31.0744 12.8748 31.4244 15.9998C31.4244 15.9998 33.596 15.6713 34.4244 16.4997C35.2529 17.3281 35.2529 18.6713 34.4244 19.4997C33.596 20.3281 31.4244 19.9998 31.4244 19.9998C31.0744 23.1248 29.7807 25.306 27.5432 27.5435C25.3057 29.781 20 31.4247 20 31.4247C20 31.4247 20.4103 33.6623 19.4994 34.4247C18.6011 35.1767 17.3279 35.2531 16.4994 34.4247ZM17.9994 28.4997C20.8994 28.4997 23.3744 27.4747 25.4244 25.4247C27.4744 23.3747 28.4994 20.8997 28.4994 17.9997C28.4994 15.0997 27.4744 12.6247 25.4244 10.5747C23.3744 8.5247 20.8994 7.4997 17.9994 7.4997C15.0994 7.4997 12.6244 8.5247 10.5744 10.5747C8.52445 12.6247 7.49945 15.0997 7.49945 17.9997C7.49945 20.8997 8.52445 23.3747 10.5744 25.4247C12.6244 27.4747 15.0994 28.4997 17.9994 28.4997ZM17.9994 23.9997C16.3494 23.9997 14.9369 23.4122 13.7619 22.2372C12.5869 21.0622 11.9994 19.6497 11.9994 17.9997C11.9994 16.3497 12.5869 14.9372 13.7619 13.7622C14.9369 12.5872 16.3494 11.9997 17.9994 11.9997C19.6494 11.9997 21.0619 12.5872 22.2369 13.7622C23.4119 14.9372 23.9994 16.3497 23.9994 17.9997C23.9994 19.6497 23.4119 21.0622 22.2369 22.2372C21.0619 23.4122 19.6494 23.9997 17.9994 23.9997ZM17.9994 20.9997C18.8244 20.9997 19.5307 20.706 20.1182 20.1185C20.7057 19.531 20.9994 18.8247 20.9994 17.9997C20.9994 17.1747 20.7057 16.4685 20.1182 15.881C19.5307 15.2935 18.8244 14.9997 17.9994 14.9997C17.1744 14.9997 16.4682 15.2935 15.8807 15.881C15.2932 16.4685 14.9994 17.1747 14.9994 17.9997C14.9994 18.8247 15.2932 19.531 15.8807 20.1185C16.4682 20.706 17.1744 20.9997 17.9994 20.9997Z" fill="#CCD8FF"/>
</g>
</svg>
