<svg width="24" height="24" viewBox="0 0 24 24" fill="none" xmlns="http://www.w3.org/2000/svg">
<path d="M15.7568 13.3157L14.3398 11.8911C14.4864 11.1215 14.2665 10.4011 13.6801 9.72974C13.0938 9.0584 12.3364 8.79642 11.408 8.94378L9.99091 7.51924C10.2678 7.38825 10.5488 7.29 10.8338 7.22451C11.1188 7.15901 11.4242 7.12626 11.75 7.12626C12.9716 7.12626 14.0099 7.55608 14.8651 8.41572C15.7202 9.27536 16.1477 10.3192 16.1477 11.5473C16.1477 11.8747 16.1152 12.1818 16.05 12.4683C15.9848 12.7548 15.8871 13.0373 15.7568 13.3157ZM18.8841 16.4104L17.467 15.0349C18.086 14.5601 18.6357 14.0402 19.1162 13.4753C19.5967 12.9104 20.008 12.2677 20.35 11.5473C19.5356 9.89348 18.367 8.57946 16.844 7.6052C15.3211 6.63095 13.6231 6.14382 11.75 6.14382C11.2777 6.14382 10.8134 6.17657 10.3574 6.24206C9.90133 6.30756 9.45341 6.4058 9.01364 6.5368L7.49886 5.01401C8.16667 4.73565 8.85076 4.52688 9.55114 4.3877C10.2515 4.24852 10.9845 4.17893 11.75 4.17893C14.2095 4.17893 16.4002 4.86255 18.3222 6.22978C20.2441 7.59702 21.6367 9.36951 22.5 11.5473C22.1254 12.5133 21.6327 13.4098 21.0219 14.2367C20.4111 15.0636 19.6985 15.7881 18.8841 16.4104ZM19.3727 22.4524L15.2682 18.3752C14.6981 18.5554 14.124 18.6904 13.5457 18.7805C12.9675 18.8706 12.3689 18.9156 11.75 18.9156C9.29053 18.9156 7.09981 18.232 5.17784 16.8647C3.25587 15.4975 1.86326 13.725 1 11.5473C1.34205 10.6794 1.77367 9.87301 2.29489 9.12799C2.8161 8.38297 3.41061 7.71573 4.07841 7.12626L1.39091 4.37542L2.75909 3L20.7409 21.077L19.3727 22.4524ZM5.44659 8.50168C4.97424 8.92741 4.54261 9.39407 4.1517 9.90167C3.7608 10.4093 3.42689 10.9578 3.15 11.5473C3.96439 13.201 5.13305 14.5151 6.65597 15.4893C8.17888 16.4636 9.87689 16.9507 11.75 16.9507C12.0758 16.9507 12.3934 16.9302 12.7028 16.8893C13.0123 16.8484 13.3299 16.8033 13.6557 16.7542L12.7761 15.8209C12.597 15.87 12.4259 15.9069 12.2631 15.9314C12.1002 15.956 11.9292 15.9683 11.75 15.9683C10.5284 15.9683 9.49006 15.5384 8.63494 14.6788C7.77983 13.8192 7.35227 12.7753 7.35227 11.5473C7.35227 11.3671 7.36449 11.1952 7.38892 11.0315C7.41335 10.8677 7.45 10.6958 7.49886 10.5157L5.44659 8.50168Z" fill="#E1E3E7"/>
</svg>
