<svg width="42" height="49" viewBox="0 0 42 49" fill="none" xmlns="http://www.w3.org/2000/svg">
<path d="M21 25.3529C22.4438 25.3529 23.6797 24.8564 24.7078 23.8634C25.7359 22.8704 26.25 21.6767 26.25 20.2823C26.25 18.8879 25.7359 17.6942 24.7078 16.7012C23.6797 15.7082 22.4438 15.2117 21 15.2117C19.5562 15.2117 18.3203 15.7082 17.2922 16.7012C16.2641 17.6942 15.75 18.8879 15.75 20.2823C15.75 21.6767 16.2641 22.8704 17.2922 23.8634C18.3203 24.8564 19.5562 25.3529 21 25.3529ZM21 49C17.8428 49 8.69531 39.54 5.21719 34.575C1.73906 29.6101 0 25.0149 0 20.7894C0 14.4512 2.11094 9.40171 6.33281 5.64102C10.5547 1.88034 15.4438 0 21 0C26.5562 0 31.4453 1.88034 35.6672 5.64102C39.8891 9.40171 42 14.4512 42 20.7894C42 25.0149 40.2609 29.6101 36.7828 34.575C33.3047 39.54 24.1572 49 21 49Z" fill="#5175EC"/>
</svg>
