<svg width="13" height="13" viewBox="0 0 13 13" fill="none" xmlns="http://www.w3.org/2000/svg">
<path d="M3.86667 13H1.33333C0.966667 13 0.652778 12.8694 0.391667 12.6083C0.130556 12.3472 0 12.0333 0 11.6667V9.13333C0.533333 9.13333 1 8.96389 1.4 8.625C1.8 8.28611 2 7.85556 2 7.33333C2 6.81111 1.8 6.38056 1.4 6.04167C1 5.70278 0.533333 5.53333 0 5.53333V3C0 2.63333 0.130556 2.31944 0.391667 2.05833C0.652778 1.79722 0.966667 1.66667 1.33333 1.66667H4C4 1.2 4.16111 0.805556 4.48333 0.483333C4.80556 0.161111 5.2 0 5.66667 0C6.13333 0 6.52778 0.161111 6.85 0.483333C7.17222 0.805556 7.33333 1.2 7.33333 1.66667H10C10.3667 1.66667 10.6806 1.79722 10.9417 2.05833C11.2028 2.31944 11.3333 2.63333 11.3333 3V5.66667C11.8 5.66667 12.1944 5.82778 12.5167 6.15C12.8389 6.47222 13 6.86667 13 7.33333C13 7.8 12.8389 8.19445 12.5167 8.51667C12.1944 8.83889 11.8 9 11.3333 9V11.6667C11.3333 12.0333 11.2028 12.3472 10.9417 12.6083C10.6806 12.8694 10.3667 13 10 13H7.46667C7.46667 12.4444 7.29167 11.9722 6.94167 11.5833C6.59167 11.1944 6.16667 11 5.66667 11C5.16667 11 4.74167 11.1944 4.39167 11.5833C4.04167 11.9722 3.86667 12.4444 3.86667 13Z" fill="#829CE6"/>
</svg>
