<svg width="25" height="25" viewBox="0 0 25 25" fill="none" xmlns="http://www.w3.org/2000/svg">
<path d="M0 24.5H24.5V22.8156C24.5 20.5698 23.3771 18.7578 21.1313 17.3797C18.8854 16.0016 15.925 15.3125 12.25 15.3125C8.575 15.3125 5.61458 16.0016 3.36875 17.3797C1.12292 18.7578 0 20.5698 0 22.8156V24.5ZM12.25 12.25C13.9344 12.25 15.3763 11.6503 16.5758 10.4508C17.7753 9.2513 18.375 7.80938 18.375 6.125C18.375 4.44063 17.7753 2.9987 16.5758 1.79922C15.3763 0.59974 13.9344 0 12.25 0C10.5656 0 9.1237 0.59974 7.92422 1.79922C6.72474 2.9987 6.125 4.44063 6.125 6.125C6.125 7.80938 6.72474 9.2513 7.92422 10.4508C9.1237 11.6503 10.5656 12.25 12.25 12.25Z" fill="#C7C9CD"/>
</svg>
