<svg width="20" height="20" viewBox="0 0 20 20" fill="none" xmlns="http://www.w3.org/2000/svg">
<mask id="mask0_3327_75371" style="mask-type:alpha" maskUnits="userSpaceOnUse" x="0" y="0" width="20" height="20">
<rect width="20" height="20" fill="#D9D9D9"/>
</mask>
<g mask="url(#mask0_3327_75371)">
<path d="M5.83398 17.5C5.37565 17.5 4.98329 17.3368 4.6569 17.0104C4.33051 16.684 4.16732 16.2917 4.16732 15.8333V5C3.70708 5 3.33398 4.6269 3.33398 4.16667C3.33398 3.70643 3.70708 3.33333 4.16732 3.33333H7.50065C7.50065 2.8731 7.87375 2.5 8.33398 2.5H11.6673C12.1276 2.5 12.5007 2.8731 12.5007 3.33333H15.834C16.2942 3.33333 16.6673 3.70643 16.6673 4.16667C16.6673 4.6269 16.2942 5 15.834 5V15.8333C15.834 16.2917 15.6708 16.684 15.3444 17.0104C15.018 17.3368 14.6257 17.5 14.1673 17.5H5.83398ZM14.1673 5H5.83398V15.8333H14.1673V5ZM7.50065 13.3333C7.50065 13.7936 7.87375 14.1667 8.33398 14.1667C8.79422 14.1667 9.16732 13.7936 9.16732 13.3333V7.5C9.16732 7.03976 8.79422 6.66667 8.33398 6.66667C7.87375 6.66667 7.50065 7.03976 7.50065 7.5V13.3333ZM10.834 13.3333C10.834 13.7936 11.2071 14.1667 11.6673 14.1667C12.1276 14.1667 12.5007 13.7936 12.5007 13.3333V7.5C12.5007 7.03976 12.1276 6.66667 11.6673 6.66667C11.2071 6.66667 10.834 7.03976 10.834 7.5V13.3333Z" fill="#353738"/>
</g>
</svg>
