<svg width="18" height="17" viewBox="0 0 18 17" fill="none" xmlns="http://www.w3.org/2000/svg">
<mask id="mask0_2682_26281" style="mask-type:alpha" maskUnits="userSpaceOnUse" x="0" y="0" width="18" height="17">
<rect x="0.5" y="1.16602" width="16.0612" height="15" fill="#D9D9D9" stroke="#84878E"/>
</mask>
<g mask="url(#mask0_2682_26281)">
<path d="M3.56469 14.6512V3.99935C3.56469 3.63557 3.70267 3.32428 3.97917 3.06498C4.2557 2.80565 4.58794 2.67602 4.97646 2.67602H12.0853C12.4738 2.67602 12.8061 2.80565 13.0826 3.06498C13.3591 3.32428 13.4971 3.63557 13.4971 3.99935V14.6512L8.53461 12.6567L8.53604 12.6532L8.52715 12.6567L3.56469 14.6512ZM4.96646 12.6327V12.6475L4.9802 12.642L8.53088 11.2101L12.0816 12.642L12.0953 12.6475V12.6327V3.99935H12.0853V3.98935H4.97646V3.99935H4.96646V12.6327Z" fill="#84878E" stroke="#84878E" stroke-width="0.02"/>
</g>
</svg>
