<svg width="18" height="16" viewBox="0 0 18 16" fill="none" xmlns="http://www.w3.org/2000/svg">
<mask id="mask0_1073_104492" style="mask-type:alpha" maskUnits="userSpaceOnUse" x="0" y="0" width="18" height="16">
<rect x="0.560547" y="0.5" width="16.0612" height="15" fill="#D9D9D9" stroke="#84878E"/>
</mask>
<g mask="url(#mask0_1073_104492)">
<path d="M13.895 8.20584L13.9036 8.21034L13.895 8.19416C13.3963 7.2494 12.6756 6.49872 11.7332 5.94224C10.7907 5.38573 9.7559 5.1075 8.62912 5.1075C7.50233 5.1075 6.46757 5.38573 5.52508 5.94224C4.58264 6.49872 3.86193 7.2494 3.36321 8.19416L3.35467 8.18966L3.36321 8.20584C3.86193 9.1506 4.58264 9.90128 5.52508 10.4578C6.46757 11.0143 7.50233 11.2925 8.62912 11.2925C9.7559 11.2925 10.7907 11.0143 11.7332 10.4578C12.6756 9.90128 13.3963 9.1506 13.895 8.20584ZM10.524 9.97588C10.0039 10.4636 9.37252 10.7075 8.62912 10.7075C7.88572 10.7075 7.25435 10.4636 6.73428 9.97588C6.21423 9.48818 5.95448 8.89646 5.95448 8.2C5.95448 7.50354 6.21423 6.91182 6.73428 6.42412C7.25435 5.93639 7.88572 5.6925 8.62912 5.6925C9.37252 5.6925 10.0039 5.93639 10.524 6.42412C11.044 6.91182 11.3038 7.50354 11.3038 8.2C11.3038 8.89646 11.044 9.48818 10.524 9.97588ZM7.47853 9.28012C7.79445 9.57639 8.17823 9.7245 8.62912 9.7245C9.08 9.7245 9.46378 9.57639 9.7797 9.28012C10.0957 8.98382 10.2539 8.62354 10.2539 8.2C10.2539 7.77646 10.0957 7.41618 9.7797 7.11988C9.46378 6.82361 9.08 6.6755 8.62912 6.6755C8.17823 6.6755 7.79445 6.82361 7.47853 7.11988C7.16258 7.41618 7.00433 7.77646 7.00433 8.2C7.00433 8.62354 7.16258 8.98382 7.47853 9.28012ZM8.62912 12.3875C7.17838 12.3875 5.85706 12.0078 4.66483 11.2485C3.47415 10.4901 2.61068 9.474 2.07411 8.2C2.61068 6.926 3.47415 5.90991 4.66483 5.15154C5.85706 4.39219 7.17838 4.0125 8.62912 4.0125C10.0799 4.0125 11.4012 4.39219 12.5934 5.15154C13.7841 5.90991 14.6476 6.926 15.1841 8.2C14.6476 9.474 13.7841 10.4901 12.5934 11.2485C11.4012 12.0078 10.0799 12.3875 8.62912 12.3875Z" fill="#84878E" stroke="#84878E" stroke-width="0.025"/>
</g>
</svg>
