<svg width="24" height="24" viewBox="0 0 24 24" fill="none" xmlns="http://www.w3.org/2000/svg">
<mask id="mask0_2542_25661" style="mask-type:alpha" maskUnits="userSpaceOnUse" x="0" y="0" width="24" height="24">
<rect x="0.5" y="1.24609" width="23" height="21.5072" fill="#D9D9D9" stroke="#E1E3E7"/>
</mask>
<g mask="url(#mask0_2542_25661)">
<path d="M20.8111 11.5374L20.8196 11.5419L20.8111 11.5257C19.9766 9.94498 18.7708 8.68899 17.1939 7.75786C15.6169 6.8267 13.8855 6.36115 12 6.36115C10.1145 6.36115 8.38313 6.8267 6.80614 7.75786C5.2292 8.68899 4.02339 9.94498 3.18895 11.5257L3.1804 11.5212L3.18895 11.5374C4.02339 13.1181 5.2292 14.3741 6.80614 15.3052C8.38313 16.2364 10.1145 16.7019 12 16.7019C13.8855 16.7019 15.6169 16.2364 17.1939 15.3052C18.7708 14.3741 19.9766 13.1181 20.8111 11.5374ZM15.1789 14.5117C14.3064 15.33 13.247 15.7391 12 15.7391C10.753 15.7391 9.69363 15.33 8.82105 14.5117C7.9485 13.6934 7.5125 12.7002 7.5125 11.5315C7.5125 10.3628 7.9485 9.3697 8.82105 8.55142C9.69363 7.73312 10.753 7.32394 12 7.32394C13.247 7.32394 14.3064 7.73312 15.1789 8.55142C16.0515 9.3697 16.4875 10.3628 16.4875 11.5315C16.4875 12.7002 16.0515 13.6934 15.1789 14.5117ZM10.0789 13.3342C10.6064 13.8288 11.247 14.0761 12 14.0761C12.753 14.0761 13.3936 13.8288 13.9211 13.3342C14.4485 12.8396 14.7125 12.2384 14.7125 11.5315C14.7125 10.8246 14.4485 10.2235 13.9211 9.72888C13.3936 9.23427 12.753 8.98698 12 8.98698C11.247 8.98698 10.6064 9.23427 10.0789 9.72888C9.5515 10.2235 9.2875 10.8246 9.2875 11.5315C9.2875 12.2384 9.5515 12.8396 10.0789 13.3342ZM12 18.5525C9.56898 18.5525 7.35465 17.9163 5.35672 16.6437C3.36032 15.3722 1.9127 13.6682 1.01356 11.5315C1.9127 9.3949 3.36032 7.6909 5.35672 6.41936C7.35465 5.14682 9.56898 4.51055 12 4.51055C14.431 4.51055 16.6453 5.14682 18.6433 6.41936C20.6397 7.6909 22.0873 9.3949 22.9864 11.5315C22.0873 13.6682 20.6397 15.3722 18.6433 16.6437C16.6453 17.9163 14.431 18.5525 12 18.5525Z" fill="#E1E3E7" stroke="#E1E3E7" stroke-width="0.025"/>
</g>
</svg>
