<svg width="28" height="25" viewBox="0 0 28 25" fill="none" xmlns="http://www.w3.org/2000/svg">
<path d="M13.6905 19.5477C15.3572 19.5477 16.7738 18.9644 17.9405 17.7977C19.1072 16.631 19.6905 15.2144 19.6905 13.5477C19.6905 11.881 19.1072 10.4644 17.9405 9.29769C16.7738 8.13102 15.3572 7.54769 13.6905 7.54769C12.0238 7.54769 10.6072 8.13102 9.44051 9.29769C8.27384 10.4644 7.69051 11.881 7.69051 13.5477C7.69051 15.2144 8.27384 16.631 9.44051 17.7977C10.6072 18.9644 12.0238 19.5477 13.6905 19.5477ZM13.6905 16.881C12.7572 16.881 11.9683 16.5588 11.3238 15.9144C10.6794 15.2699 10.3572 14.481 10.3572 13.5477C10.3572 12.6144 10.6794 11.8255 11.3238 11.181C11.9683 10.5366 12.7572 10.2144 13.6905 10.2144C14.6238 10.2144 15.4127 10.5366 16.0572 11.181C16.7016 11.8255 17.0238 12.6144 17.0238 13.5477C17.0238 14.481 16.7016 15.2699 16.0572 15.9144C15.4127 16.5588 14.6238 16.881 13.6905 16.881ZM3.02384 24.2144C2.29051 24.2144 1.66273 23.9532 1.14051 23.431C0.618289 22.9088 0.357178 22.281 0.357178 21.5477V5.54769C0.357178 4.81436 0.618289 4.18658 1.14051 3.66436C1.66273 3.14213 2.29051 2.88102 3.02384 2.88102H7.22384L9.69051 0.214355H17.6905L20.1572 2.88102H24.3572C25.0905 2.88102 25.7183 3.14213 26.2405 3.66436C26.7627 4.18658 27.0238 4.81436 27.0238 5.54769V21.5477C27.0238 22.281 26.7627 22.9088 26.2405 23.431C25.7183 23.9532 25.0905 24.2144 24.3572 24.2144H3.02384Z" fill="#84878E"/>
</svg>
