<svg width="18" height="20" viewBox="0 0 18 20" fill="none" xmlns="http://www.w3.org/2000/svg">
<path d="M3 8C3 4.68629 5.68629 2 9 2V2C12.3137 2 15 4.68629 15 8V16H3V8Z" stroke="#353738" stroke-width="2" stroke-linejoin="round"/>
<path d="M1 16H17" stroke="#353738" stroke-width="2" stroke-linecap="round"/>
<mask id="path-3-inside-1_2612_26457" fill="white">
<path d="M6 17C6 17.394 6.0776 17.7841 6.22836 18.148C6.37913 18.512 6.6001 18.8427 6.87868 19.1213C7.15726 19.3999 7.48797 19.6209 7.85195 19.7716C8.21593 19.9224 8.60603 20 9 20C9.39397 20 9.78407 19.9224 10.1481 19.7716C10.512 19.6209 10.8427 19.3999 11.1213 19.1213C11.3999 18.8427 11.6209 18.512 11.7716 18.1481C11.9224 17.7841 12 17.394 12 17L10.032 17C10.032 17.1355 10.0053 17.2697 9.95341 17.3949C9.90154 17.5201 9.82553 17.6339 9.7297 17.7297C9.63388 17.8255 9.52012 17.9015 9.39491 17.9534C9.26971 18.0053 9.13552 18.032 9 18.032C8.86448 18.032 8.73029 18.0053 8.60509 17.9534C8.47988 17.9015 8.36612 17.8255 8.2703 17.7297C8.17447 17.6339 8.09846 17.5201 8.0466 17.3949C7.99473 17.2697 7.96804 17.1355 7.96804 17L6 17Z"/>
</mask>
<path d="M6 17C6 17.394 6.0776 17.7841 6.22836 18.148C6.37913 18.512 6.6001 18.8427 6.87868 19.1213C7.15726 19.3999 7.48797 19.6209 7.85195 19.7716C8.21593 19.9224 8.60603 20 9 20C9.39397 20 9.78407 19.9224 10.1481 19.7716C10.512 19.6209 10.8427 19.3999 11.1213 19.1213C11.3999 18.8427 11.6209 18.512 11.7716 18.1481C11.9224 17.7841 12 17.394 12 17L10.032 17C10.032 17.1355 10.0053 17.2697 9.95341 17.3949C9.90154 17.5201 9.82553 17.6339 9.7297 17.7297C9.63388 17.8255 9.52012 17.9015 9.39491 17.9534C9.26971 18.0053 9.13552 18.032 9 18.032C8.86448 18.032 8.73029 18.0053 8.60509 17.9534C8.47988 17.9015 8.36612 17.8255 8.2703 17.7297C8.17447 17.6339 8.09846 17.5201 8.0466 17.3949C7.99473 17.2697 7.96804 17.1355 7.96804 17L6 17Z" fill="#E1E3E7" stroke="#353738" stroke-width="2" mask="url(#path-3-inside-1_2612_26457)"/>
<mask id="path-4-inside-2_2612_26457" fill="white">
<path d="M11 2C11 1.73736 10.9483 1.47728 10.8478 1.23463C10.7472 0.991982 10.5999 0.771504 10.4142 0.585786C10.2285 0.400069 10.008 0.25275 9.76537 0.152241C9.52272 0.0517315 9.26264 -1.14805e-08 9 0C8.73736 1.14805e-08 8.47728 0.0517316 8.23463 0.152241C7.99198 0.25275 7.7715 0.400069 7.58579 0.585787C7.40007 0.771504 7.25275 0.991982 7.15224 1.23463C7.05173 1.47728 7 1.73736 7 2L9 2L11 2Z"/>
</mask>
<path d="M11 2C11 1.73736 10.9483 1.47728 10.8478 1.23463C10.7472 0.991982 10.5999 0.771504 10.4142 0.585786C10.2285 0.400069 10.008 0.25275 9.76537 0.152241C9.52272 0.0517315 9.26264 -1.14805e-08 9 0C8.73736 1.14805e-08 8.47728 0.0517316 8.23463 0.152241C7.99198 0.25275 7.7715 0.400069 7.58579 0.585787C7.40007 0.771504 7.25275 0.991982 7.15224 1.23463C7.05173 1.47728 7 1.73736 7 2L9 2L11 2Z" fill="#E1E3E7" stroke="#353738" stroke-width="2" mask="url(#path-4-inside-2_2612_26457)"/>
</svg>
