<svg width="16" height="17" viewBox="0 0 16 17" fill="none" xmlns="http://www.w3.org/2000/svg">
<mask id="mask0_2739_34311" style="mask-type:alpha" maskUnits="userSpaceOnUse" x="0" y="0" width="16" height="17">
<rect x="0.5" y="1.16663" width="15" height="15" fill="#D9D9D9" stroke="#84878E"/>
</mask>
<g mask="url(#mask0_2739_34311)">
<path d="M7.87296 4.91004L7.88248 4.92125L7.89201 4.91004C8.2242 4.51923 8.61983 4.21641 9.07898 4.00148C9.53812 3.78657 10.0216 3.67913 10.5296 3.67913C11.4481 3.67913 12.2145 3.98678 12.8296 4.60196C13.4448 5.21713 13.7525 5.98351 13.7525 6.90199C13.7525 7.35155 13.6767 7.79133 13.5252 8.2214C13.3738 8.65123 13.1074 9.12316 12.7255 9.63724C12.3436 10.1513 11.8293 10.7317 11.1825 11.3785C10.5357 12.0254 8.87885 13.5502 8.72708 13.687C8.70331 13.7084 8.67728 13.7343 8.64863 13.7628C8.49152 13.9193 8.25568 14.1541 7.88248 14.1541C7.51526 14.1541 7.32033 13.9622 7.14374 13.7883C7.10813 13.7532 7.07327 13.7188 7.03789 13.687C6.82927 13.499 5.22926 12.0254 4.58242 11.3785C3.93562 10.7317 3.42135 10.1513 3.03947 9.63724C2.65758 9.12316 2.39115 8.65123 2.23974 8.2214C2.08824 7.79133 2.0125 7.35155 2.0125 6.90199C2.0125 5.98351 2.32015 5.21713 2.93533 4.60196C3.55051 3.98678 4.31689 3.67913 5.23537 3.67913C5.74335 3.67913 6.22685 3.78657 6.68598 4.00148C7.14513 4.21641 7.54076 4.51923 7.87296 4.91004ZM7.87414 12.882L7.88248 12.8895L7.89082 12.882C8.83211 12.0388 9.60681 11.3156 10.2149 10.7124C10.8229 10.1093 11.3037 9.58436 11.6571 9.13774C12.0104 8.69113 12.2563 8.29298 12.3942 7.94336C12.532 7.59399 12.601 7.24684 12.601 6.90199C12.601 6.31065 12.4037 5.81719 12.0091 5.42253C11.6144 5.02787 11.1209 4.83062 10.5296 4.83062C10.0663 4.83062 9.63742 4.96128 9.24326 5.22242C9.04508 5.35371 8.85829 5.5852 8.71327 5.79185C8.64064 5.89536 8.57824 5.993 8.52992 6.06924C8.5255 6.07621 8.5212 6.083 8.51703 6.0896C8.49835 6.11911 8.48212 6.14475 8.46853 6.16557C8.45172 6.19134 8.43953 6.20881 8.43203 6.21714C8.3656 6.29089 8.17048 6.5069 7.88248 6.5069C7.5945 6.5069 7.39466 6.28567 7.33293 6.21714C7.32496 6.20828 7.31241 6.1904 7.29537 6.16439C7.28097 6.14241 7.26375 6.11524 7.24392 6.08396C7.24052 6.0786 7.23705 6.07312 7.2335 6.06752C7.18502 5.9911 7.12273 5.89359 7.05032 5.79034C6.90576 5.58419 6.71989 5.35371 6.52171 5.22242C6.12754 4.96128 5.69867 4.83062 5.23537 4.83062C4.64403 4.83062 4.15057 5.02787 3.75591 5.42253C3.36124 5.81719 3.164 6.31065 3.164 6.90199C3.164 7.24684 3.23297 7.59399 3.37075 7.94336C3.50863 8.29298 3.75453 8.69113 4.10789 9.13774C4.46126 9.58436 4.94205 10.1093 5.5501 10.7124C6.15816 11.3156 6.93285 12.0388 7.87414 12.882Z" fill="#84878E" stroke="#84878E" stroke-width="0.025"/>
</g>
</svg>
