<svg width="12" height="12" viewBox="0 0 12 12" fill="none" xmlns="http://www.w3.org/2000/svg">
<path d="M5.87296 1.90943L5.88248 1.92064L5.89201 1.90943C6.2242 1.51862 6.61983 1.2158 7.07898 1.00087C7.53812 0.78596 8.02161 0.678516 8.5296 0.678516C9.44808 0.678516 10.2145 0.986169 10.8296 1.60135C11.4448 2.21652 11.7525 2.9829 11.7525 3.90138C11.7525 4.35094 11.6767 4.79072 11.5252 5.22079C11.3738 5.65062 11.1074 6.12255 10.7255 6.63663C10.3436 7.1507 9.82935 7.73113 9.18254 8.37793C8.53571 9.02477 6.87885 10.5496 6.72708 10.6864C6.70331 10.7078 6.67728 10.7337 6.64863 10.7622C6.49152 10.9187 6.25568 11.1535 5.88248 11.1535C5.51526 11.1535 5.32033 10.9615 5.14374 10.7876C5.10813 10.7526 5.07327 10.7182 5.03789 10.6864C4.82927 10.4984 3.22926 9.02477 2.58242 8.37793C1.93562 7.73113 1.42135 7.1507 1.03947 6.63663C0.657579 6.12255 0.391154 5.65062 0.239736 5.22079C0.0882352 4.79072 0.0125 4.35094 0.0125 3.90138C0.0125 2.9829 0.320153 2.21652 0.93533 1.60135C1.55051 0.986169 2.31689 0.678516 3.23537 0.678516C3.74335 0.678516 4.22685 0.78596 4.68598 1.00087C5.14513 1.2158 5.54076 1.51862 5.87296 1.90943ZM5.87414 9.88141L5.88248 9.88888L5.89082 9.88141C6.83211 9.03817 7.60681 8.31496 8.21487 7.71181C8.82292 7.10866 9.3037 6.58375 9.65707 6.13713C10.0104 5.69052 10.2563 5.29237 10.3942 4.94275C10.532 4.59338 10.601 4.24623 10.601 3.90138C10.601 3.31004 10.4037 2.81658 10.0091 2.42192C9.6144 2.02726 9.12094 1.83001 8.5296 1.83001C8.0663 1.83001 7.63742 1.96067 7.24326 2.22181C7.04508 2.3531 6.85829 2.58459 6.71327 2.79124C6.64064 2.89475 6.57824 2.99239 6.52992 3.06862C6.5255 3.0756 6.5212 3.08239 6.51703 3.08899C6.49835 3.1185 6.48212 3.14414 6.46853 3.16496C6.45172 3.19073 6.43953 3.2082 6.43203 3.21653C6.3656 3.29028 6.17048 3.50629 5.88248 3.50629C5.5945 3.50629 5.39466 3.28506 5.33293 3.21653C5.32496 3.20767 5.31241 3.18979 5.29537 3.16378C5.28097 3.1418 5.26375 3.11463 5.24392 3.08335C5.24052 3.07799 5.23705 3.07251 5.2335 3.06691C5.18502 2.99049 5.12273 2.89298 5.05032 2.78973C4.90576 2.58358 4.71989 2.3531 4.52171 2.22181C4.12754 1.96067 3.69867 1.83001 3.23537 1.83001C2.64403 1.83001 2.15057 2.02726 1.75591 2.42192C1.36124 2.81658 1.164 3.31004 1.164 3.90138C1.164 4.24623 1.23297 4.59338 1.37075 4.94275C1.50863 5.29237 1.75453 5.69052 2.10789 6.13713C2.46126 6.58375 2.94205 7.10866 3.5501 7.71181C4.15816 8.31496 4.93285 9.03817 5.87414 9.88141Z" fill="#84878E" stroke="#84878E" stroke-width="0.025"/>
</svg>
